<svg width="40" height="40" fill="none" xmlns="http://www.w3.org/2000/svg"><path d="M28.084 0H11.916C5.346 0 0 5.346 0 11.916v16.168C0 34.654 5.346 40 11.916 40h16.168C34.654 40 40 34.654 40 28.084V11.916C40 5.346 34.654 0 28.084 0zm7.892 28.084a7.892 7.892 0 01-7.892 7.892H11.916a7.892 7.892 0 01-7.892-7.892V11.916a7.892 7.892 0 017.892-7.892h16.168a7.892 7.892 0 017.892 7.892v16.168z" fill="url(#paint0_linear_21_2122)"/><path d="M20 9.655c-5.705 0-10.346 4.64-10.346 10.345 0 5.704 4.641 10.346 10.346 10.346 5.704 0 10.345-4.641 10.345-10.346 0-5.704-4.64-10.345-10.345-10.345zm0 16.667a6.321 6.321 0 110-12.643 6.321 6.321 0 010 12.643z" fill="url(#paint1_linear_21_2122)"/><path d="M30.366 12.211a2.479 2.479 0 100-4.958 2.479 2.479 0 000 4.958z" fill="url(#paint2_linear_21_2122)"/><defs><linearGradient id="paint0_linear_21_2122" x1="20" y1="39.884" x2="20" y2=".311" gradientUnits="userSpaceOnUse"><stop stop-color="#E09B3D"/><stop offset=".3" stop-color="#C74C4D"/><stop offset=".6" stop-color="#C21975"/><stop offset="1" stop-color="#7024C4"/></linearGradient><linearGradient id="paint1_linear_21_2122" x1="20" y1="39.884" x2="20" y2=".311" gradientUnits="userSpaceOnUse"><stop stop-color="#E09B3D"/><stop offset=".3" stop-color="#C74C4D"/><stop offset=".6" stop-color="#C21975"/><stop offset="1" stop-color="#7024C4"/></linearGradient><linearGradient id="paint2_linear_21_2122" x1="30.366" y1="39.884" x2="30.366" y2=".311" gradientUnits="userSpaceOnUse"><stop stop-color="#E09B3D"/><stop offset=".3" stop-color="#C74C4D"/><stop offset=".6" stop-color="#C21975"/><stop offset="1" stop-color="#7024C4"/></linearGradient></defs></svg>